<?xml version="1.0" standalone="no"?>
<!DOCTYPE svg PUBLIC "-//W3C//DTD SVG 20010904//EN"
 "http://www.w3.org/TR/2001/REC-SVG-20010904/DTD/svg10.dtd">
<svg version="1.0" xmlns="http://www.w3.org/2000/svg"
 width="400.000000pt" height="400.000000pt" viewBox="0 0 400.000000 400.000000"
 preserveAspectRatio="xMidYMid meet">

<g transform="translate(0.000000,400.000000) scale(0.100000,-0.100000)"
fill="#000000" stroke="none">
<path d="M1250 3201 c-67 -8 -91 -21 -125 -65 -22 -29 -43 -107 -45 -167 0 -4
-37 -9 -82 -11 -139 -8 -240 -71 -296 -187 l-27 -56 0 -815 0 -815 32 -66 c55
-112 170 -194 305 -219 37 -7 377 -10 1000 -8 884 3 945 4 979 21 47 23 96 72
120 119 18 36 19 67 19 733 0 568 -3 702 -14 729 -19 47 -72 104 -120 129
l-41 22 -1005 3 c-950 4 -1007 5 -1040 22 -50 25 -110 94 -110 125 0 31 61
100 111 126 37 18 71 19 1084 19 1026 0 1047 0 1085 -20 59 -30 103 -81 120
-138 7 -27 4 -37 -21 -68 -25 -32 -27 -39 -15 -53 47 -55 46 -32 46 -806 0
-399 4 -725 8 -725 16 0 59 55 83 105 l24 50 0 760 0 760 -26 56 c-44 94 -148
176 -246 195 -31 6 -33 9 -33 49 0 99 -58 176 -146 196 -73 16 -299 7 -339
-13 -65 -34 -105 -104 -105 -183 0 -42 -2 -46 -22 -43 -20 3 -24 11 -29 55 -9
72 -37 123 -87 158 -43 30 -45 30 -201 33 -187 4 -260 -7 -306 -45 -37 -32
-65 -82 -65 -117 0 -13 -3 -38 -6 -55 -5 -25 -11 -31 -28 -29 -18 3 -22 12
-27 70 -6 77 -23 107 -80 145 -38 25 -50 27 -157 29 -65 1 -142 -1 -172 -5z
m285 -121 c16 -17 27 -41 31 -73 l7 -47 -192 0 -191 0 0 48 c0 51 21 87 55 95
11 3 75 5 142 4 116 -2 124 -3 148 -27z m701 11 c31 -19 44 -51 44 -107 l0
-24 -230 0 -230 0 0 48 c0 38 5 53 23 69 33 30 39 31 207 32 135 1 159 -1 186
-18z m634 4 c37 -19 50 -43 50 -94 l0 -41 -190 0 -190 0 0 48 c0 86 27 101
183 102 86 0 126 -4 147 -15z m46 -681 c27 -3 50 -14 65 -30 l24 -26 0 -689 0
-689 -28 -27 -27 -28 -965 -3 -964 -2 -33 29 -33 29 -3 713 c-1 393 0 719 2
725 3 9 244 11 963 7 527 -2 977 -6 999 -9z"/>
<path d="M1336 2056 c-15 -14 -26 -33 -26 -42 0 -18 111 -133 190 -196 102
-82 135 -111 135 -119 0 -5 -65 -64 -144 -132 -79 -67 -153 -134 -164 -148
-20 -28 -17 -57 9 -84 37 -36 83 -12 238 126 23 20 79 69 126 109 143 122 144
139 15 245 -27 22 -53 45 -60 50 -6 6 -42 37 -80 70 -175 152 -198 163 -239
121z"/>
<path d="M1877 1452 c-22 -24 -22 -76 0 -93 12 -11 66 -14 250 -14 235 0 235
0 254 24 24 30 24 42 -2 75 l-20 26 -233 0 c-213 0 -234 -2 -249 -18z"/>
<path d="M1061 2716 c-10 -18 -10 -29 -2 -44 l11 -21 963 -3 c529 -2 972 0
985 4 37 12 39 38 6 65 l-29 23 -961 0 -961 0 -12 -24z"/>
</g>
</svg>
